<svg width="12" height="14" viewBox="0 0 12 14" fill="none" xmlns="http://www.w3.org/2000/svg">
<path fill-rule="evenodd" clip-rule="evenodd" d="M4.53754 1.33333C3.44066 1.33333 2.55146 2.22253 2.55146 3.31941C2.55146 4.41629 3.44065 5.30549 4.53753 5.30549C5.63439 5.30549 6.52359 4.41629 6.52359 3.31941C6.52359 2.22253 5.63439 1.33333 4.53754 1.33333ZM1.62157 2.67316C1.91689 1.33468 3.11027 0.333333 4.53754 0.333333C5.96479 0.333333 7.15819 1.33468 7.45352 2.67316L11.1183 2.67317C11.3945 2.67317 11.6183 2.89702 11.6183 3.17317C11.6183 3.44931 11.3945 3.67317 11.1183 3.67317L7.50285 3.67316C7.32792 5.15559 6.06699 6.30547 4.53753 6.30547C3.00807 6.30547 1.74717 5.15559 1.57219 3.67317L0.8815 3.67316C0.605354 3.67316 0.3815 3.44931 0.3815 3.17316C0.3815 2.89702 0.605354 2.67316 0.8815 2.67316H1.62157ZM7.46239 8.69453C6.36552 8.69453 5.47632 9.58373 5.47632 10.6806C5.47632 11.7775 6.36552 12.6667 7.46239 12.6667C8.55925 12.6667 9.44845 11.7775 9.44845 10.6806C9.44845 9.58373 8.55925 8.69453 7.46239 8.69453ZM4.49704 10.3269C4.67199 8.8444 5.93292 7.69453 7.46239 7.69453C8.99185 7.69453 10.2528 8.8444 10.4277 10.3269H11.1183C11.3945 10.3269 11.6183 10.5507 11.6183 10.8269C11.6183 11.103 11.3945 11.3269 11.1183 11.3269H10.3783C10.0831 12.6653 8.88965 13.6667 7.46239 13.6667C6.03512 13.6667 4.84172 12.6653 4.54643 11.3269H0.881547C0.605407 11.3269 0.381547 11.103 0.381547 10.8269C0.381547 10.5507 0.605407 10.3269 0.881547 10.3269H4.49704Z" fill="#111111"/>
</svg>
