<svg width="11" height="15" viewBox="0 0 11 15" fill="none" xmlns="http://www.w3.org/2000/svg">
<path fill-rule="evenodd" clip-rule="evenodd" d="M5.55618 0.833313H5.77725C6.50538 0.833306 7.08238 0.833306 7.54745 0.871306C8.02305 0.91016 8.42545 0.991233 8.79291 1.17846C9.38871 1.48206 9.87318 1.9665 10.1768 2.56235C10.364 2.92979 10.445 3.33221 10.4839 3.8078C10.5219 4.27288 10.5219 4.84988 10.5219 5.57797V9.42198C10.5219 10.1501 10.5219 10.727 10.4839 11.1922C10.445 11.6678 10.364 12.0702 10.1768 12.4376C9.87318 13.0334 9.38871 13.5179 8.79291 13.8215C8.42545 14.0087 8.02305 14.0898 7.54745 14.1286C7.08238 14.1666 6.50538 14.1666 5.77725 14.1666H5.55618C4.82805 14.1666 4.25108 14.1666 3.786 14.1286C3.3104 14.0898 2.90798 14.0087 2.54054 13.8215C1.94469 13.5179 1.46025 13.0334 1.15665 12.4376C0.969428 12.0702 0.888355 11.6678 0.849495 11.1922C0.811495 10.727 0.811502 10.15 0.811508 9.42198V5.57798C0.811502 4.84989 0.811502 4.27289 0.849495 3.8078C0.888355 3.33221 0.969428 2.92979 1.15665 2.56234C1.46025 1.9665 1.94469 1.48206 2.54054 1.17846C2.90799 0.991233 3.3104 0.91016 3.786 0.871306C4.25108 0.833306 4.82805 0.833306 5.55618 0.833313ZM3.86743 1.86799C3.45368 1.90179 3.19751 1.96604 2.99453 2.06947C2.58684 2.27719 2.25538 2.60865 2.04765 3.01633C1.94423 3.21931 1.87998 3.47548 1.84618 3.88923C1.8119 4.30883 1.81151 4.84499 1.81151 5.59998V9.39998C1.81151 10.155 1.8119 10.6911 1.84618 11.1107C1.87998 11.5244 1.94423 11.7806 2.04765 11.9836C2.25538 12.3913 2.58684 12.7228 2.99453 12.9305C3.19751 13.0339 3.45368 13.0982 3.86743 13.132C4.28702 13.1662 4.82318 13.1666 5.57818 13.1666H5.75525C6.51025 13.1666 7.04638 13.1662 7.46598 13.132C7.87978 13.0982 8.13592 13.0339 8.33891 12.9305C8.74658 12.7228 9.07805 12.3913 9.28578 11.9836C9.38918 11.7806 9.45345 11.5244 9.48725 11.1107C9.52151 10.6911 9.52192 10.155 9.52192 9.39998V5.59998C9.52192 4.84499 9.52151 4.30883 9.48725 3.88923C9.45345 3.47548 9.38918 3.21931 9.28578 3.01633C9.07805 2.60865 8.74658 2.27719 8.33891 2.06947C8.13592 1.96604 7.87978 1.90179 7.46598 1.86799C7.04638 1.8337 6.51025 1.83331 5.75525 1.83331H5.57818C4.82318 1.83331 4.28702 1.8337 3.86743 1.86799ZM4.24172 3.02915C4.24172 2.75301 4.46558 2.52915 4.74172 2.52915H6.59171C6.86785 2.52915 7.09171 2.75301 7.09171 3.02915C7.09171 3.30529 6.86785 3.52915 6.59171 3.52915H4.74172C4.46558 3.52915 4.24172 3.30529 4.24172 3.02915ZM5.66672 11.3937C5.94285 11.3937 6.16672 11.6176 6.16672 11.8937V11.913C6.16672 12.1891 5.94285 12.413 5.66672 12.413C5.39058 12.413 5.16672 12.1891 5.16672 11.913V11.8937C5.16672 11.6176 5.39058 11.3937 5.66672 11.3937Z" fill="#989898"/>
</svg>
