<svg width="16" height="17" viewBox="0 0 16 17" fill="none" xmlns="http://www.w3.org/2000/svg">
<path fill-rule="evenodd" clip-rule="evenodd" d="M7.99999 1.41663C4.63135 1.41663 1.90054 4.14743 1.90054 7.51604C1.90054 10.8847 4.63135 13.6155 7.99999 13.6155C11.3686 13.6155 14.0994 10.8847 14.0994 7.51604C14.0994 4.14743 11.3686 1.41663 7.99999 1.41663ZM0.650543 7.51604C0.650543 3.45708 3.94099 0.166626 7.99999 0.166626C12.0589 0.166626 15.3494 3.45708 15.3494 7.51604C15.3494 9.75513 14.3481 11.7604 12.7687 13.1084L14.8932 15.823C15.106 16.0949 15.0581 16.4877 14.7862 16.7004C14.5144 16.9131 14.1216 16.8652 13.9089 16.5934L11.7517 13.837C10.6535 14.4903 9.37058 14.8655 7.99999 14.8655C3.94099 14.8655 0.650543 11.575 0.650543 7.51604Z" fill="#111111"/>
</svg>
